<?xml version="1.0" encoding="UTF-8"?>
<svg id="Capa_2" data-name="Capa 2" xmlns="http://www.w3.org/2000/svg" viewBox="0 0 200 200">
  <g id="Inicio">
    <g>
      <rect width="200" height="200" rx="50" ry="50" fill="#2358de"/>
      <path d="M35.01,102.28c4.38-5.27,6.29-11.84,9.32-17.82,3.06-6.02,5.82-12.2,8.7-18.31,.07-.15,.1-.31,.22-.65-2.31,0-4.53,.03-6.74,0-1.72-.03-2.9-1.25-2.88-2.88,.02-1.43,1.05-2.59,2.48-2.75,.5-.06,1.01-.04,1.52-.04,12.95,0,25.89-.01,38.84,.02,1.01,0,1.42-.26,1.74-1.27,1.65-5.19,6.5-8.62,11.92-8.58,5.34,.05,10.12,3.54,11.72,8.69,.28,.91,.67,1.15,1.57,1.15,12.9-.03,25.81-.02,38.71-.02,.42,0,.85-.01,1.27,0,1.83,.07,3.03,1.24,2.99,2.91-.03,1.61-1.23,2.74-3,2.76-2.16,.03-4.31,0-6.47,0-.16,.57,.2,.94,.39,1.33,5.12,10.85,10.26,21.69,15.4,32.53,.2,.41,.32,.87,.77,1.13,1.29,.76,1.6,1.95,1.52,3.37-.63,11.6-10.06,20.94-21.82,21.6-11.52,.64-21.66-7.51-23.54-18.94-.17-1.04-.22-2.1-.29-3.16-.09-1.3,.34-2.34,1.6-2.89,.44-.19,.6-.56,.78-.95,5.24-11.07,10.48-22.15,15.71-33.22,.09-.19,.15-.38,.22-.58-.33-.39-.73-.22-1.08-.22-7.74-.01-15.48,0-23.23-.03-.86,0-1.23,.24-1.55,1.06-1.45,3.67-4.07,6.17-7.84,7.39-.79,.26-1.13,.55-1.13,1.47,.03,17.09,.03,34.18,.01,51.27,0,.8,.16,1.14,1.06,1.31,8.95,1.75,15.31,9.06,15.86,18.15,.17,2.81-.83,3.87-3.66,3.87-10.75,0-21.49,0-32.24,0-2.75,0-3.74-1.06-3.6-3.81,.46-9.01,6.89-16.45,15.81-18.2,.94-.18,1.12-.52,1.12-1.39-.02-17.05-.02-34.1,0-51.15,0-.84-.2-1.24-1.06-1.51-3.86-1.24-6.53-3.8-7.98-7.58-.26-.68-.58-.88-1.28-.88-7.87,.02-15.74,.03-23.61,0-.95,0-.95,.26-.6,1,5.24,11.03,10.45,22.06,15.67,33.1,.19,.39,.39,.71,.83,.9,1.23,.52,1.57,1.53,1.53,2.78-.33,10.7-8.64,20.19-19.18,21.88-12.9,2.06-24.34-6.32-26.27-19.24-.03-.2-.14-.39-.21-.58,0-1.02,0-2.03,0-3.05Zm107.29-33.3c-.18,.21-.28,.3-.33,.4-4.6,9.87-9.19,19.75-13.8,29.61-.41,.88,0,.89,.66,.89,8.92,0,17.84-.02,26.76,.01,1.02,0,.99-.3,.62-1.07-1.26-2.63-2.46-5.28-3.69-7.92-3.38-7.27-6.77-14.54-10.21-21.93Zm-84.51-.11c-.26,.52-.42,.82-.57,1.12-4.45,9.57-8.89,19.14-13.37,28.69-.49,1.03-.3,1.22,.79,1.22,8.75-.03,17.5-.03,26.25,0,1.06,0,1.31-.14,.8-1.22-3.35-7.1-6.65-14.22-9.96-21.34-1.28-2.75-2.56-5.5-3.94-8.47Zm84.44,36.73c-5.2,0-10.41,.04-15.61-.03-1.19-.02-1.27,.32-1.02,1.35,1.77,7.46,8.77,12.94,16.52,12.87,7.82-.07,15.14-5.95,16.68-13.32,.23-1.09-.4-.86-.96-.86-5.2,0-10.41,0-15.61,0Zm-84.4,0c-5.2,0-10.41,.02-15.61-.02-.98,0-1.21,.18-.97,1.19,1.76,7.49,8.53,12.94,16.27,13.01,7.8,.07,15.01-5.54,16.89-13.05,.27-1.09-.07-1.15-.97-1.15-5.2,.03-10.41,.02-15.61,.02Zm42.18,38.63c4.18,0,8.37-.04,12.55,.02,1.09,.02,1.15-.3,.84-1.21-1.93-5.68-7.67-9.95-13.41-9.95-5.74,0-11.5,4.31-13.4,9.96-.32,.94-.18,1.21,.87,1.2,4.18-.06,8.37-.02,12.55-.02Zm-.08-75.44c3.74,.03,6.71-2.88,6.78-6.6,.06-3.73-2.97-6.83-6.7-6.84-3.67,0-6.69,3.01-6.72,6.7-.03,3.71,2.94,6.72,6.64,6.74Z" fill="#fff"/>
    </g>
  </g>
</svg>