<?xml version="1.0" encoding="UTF-8"?>
<svg id="Capa_2" data-name="Capa 2" xmlns="http://www.w3.org/2000/svg" viewBox="0 0 200 200">
  <g id="Inicio">
    <g>
      <rect width="200" height="200" rx="50" ry="50" fill="#2358de"/>
      <g>
        <path d="M102.94,150h-5.86c-.25-.06-.5-.14-.75-.16-7.79-.55-15.08-2.77-21.73-6.83-13.01-7.93-21-19.4-23.81-34.4-.35-1.87-.52-3.78-.78-5.67,0-1.95,0-3.91,0-5.86,.06-.35,.15-.69,.18-1.04,.14-2.18,.47-4.33,.94-6.46,2.65-12,8.8-21.84,18.58-29.25,12.17-9.21,25.87-12.27,40.81-9.16,11.96,2.49,21.68,8.76,29.12,18.43,8.03,10.44,11.37,22.32,10.12,35.4-1.02,10.6-5.14,19.96-12.2,27.95-7.74,8.76-17.4,14.19-28.92,16.29-1.89,.34-3.81,.42-5.69,.76Zm40.82-49.91c.07-24.06-19.5-43.71-43.63-43.82-24.09-.1-43.81,19.52-43.88,43.66-.07,24.06,19.5,43.71,43.63,43.82,24.09,.1,43.81-19.52,43.88-43.66Z" fill="#fff"/>
        <path d="M96.88,123.7c0-2.03,0-2.01-1.97-2.54-2.26-.6-4.3-1.64-6.11-3.13-1.45-1.19-1.72-3.01-.64-4.41,1.07-1.39,2.94-1.64,4.42-.52,3.8,2.86,7.92,3.18,12.27,1.57,1.26-.47,2.38-1.19,3.26-2.24,1.88-2.27,1.65-4.8-.61-6.71-2.19-1.86-4.8-2.52-7.6-2.57-2.9-.06-5.69-.62-8.27-1.98-3.59-1.88-6.27-4.57-7.04-8.7-.76-4.04,.74-7.34,3.7-10.04,2.14-1.94,4.65-3.2,7.49-3.75,.83-.16,1.24-.46,1.12-1.39-.1-.77-.04-1.56,0-2.34,.08-1.72,1.41-3.02,3.07-3.05,1.71-.02,3.08,1.3,3.16,3.06,.03,.75,.09,1.51,0,2.24-.13,.99,.3,1.33,1.22,1.51,2.5,.47,4.73,1.57,6.72,3.16,1.58,1.26,1.91,3.08,.8,4.53-1.11,1.44-3.04,1.67-4.58,.4-3.53-2.9-9.6-3.14-13.6-.71-3.97,2.41-3.98,6.71,0,9.09,2.11,1.26,4.41,1.66,6.82,1.72,3.77,.1,7.25,1.14,10.27,3.45,2.99,2.29,4.89,5.26,4.83,9.13-.06,4.28-2.36,7.32-5.81,9.59-1.73,1.13-3.61,1.96-5.65,2.29-.9,.15-1.08,.57-1.02,1.37,.06,.74,.03,1.5,0,2.24-.06,1.79-1.37,3.12-3.08,3.14-1.74,.02-3.1-1.33-3.16-3.16-.01-.42,0-.85,0-1.27Z" fill="#fff"/>
      </g>
    </g>
  </g>
</svg>