<?xml version="1.0" encoding="UTF-8"?>
<svg id="Capa_2" data-name="Capa 2" xmlns="http://www.w3.org/2000/svg" viewBox="0 0 200 200">
  <g id="Inicio">
    <g>
      <rect width="200" height="200" rx="50" ry="50" fill="#2358de"/>
      <path d="M50,82.47c.34-1.88,.47-3.8,.97-5.65,2.56-9.43,7.99-16.48,17.45-19.57,9.96-3.25,18.79-.94,26.14,6.64,2.14,2.21,3.86,4.73,5.43,7.59,.31-.53,.55-.93,.78-1.34,2.94-4.97,6.71-9.12,11.94-11.73,6.27-3.14,12.81-3.38,19.32-1.02,9.47,3.44,14.9,10.57,17.14,20.18,2.18,9.35,0,17.91-5.2,25.82-4.46,6.78-10.24,12.36-16.22,17.75-8.37,7.53-17.03,14.73-25.54,22.1-1.41,1.22-2.91,1.31-4.23,.17-9.77-8.5-19.81-16.68-29.27-25.53-4.64-4.34-9.02-8.93-12.54-14.26-3.27-4.96-5.53-10.29-6.02-16.28-.02-.19-.09-.37-.14-.56,0-1.43,0-2.86,0-4.3Zm5.89,.78c-.06,6.21,1.43,10.86,3.98,15.21,2.77,4.73,6.36,8.8,10.25,12.62,9.34,9.18,19.58,17.34,29.43,25.95,.41,.36,.63,.23,.97-.06,8.85-7.68,17.93-15.09,26.49-23.09,4.95-4.63,9.64-9.51,13.12-15.4,3.56-6.04,4.95-12.49,3.39-19.4-1.73-7.65-5.88-13.44-13.48-16.17-5.26-1.89-10.48-1.59-15.44,1.18-4.18,2.34-7.04,5.9-9.31,10-1.04,1.88-1.82,3.88-2.61,5.87-.46,1.16-1.4,1.77-2.67,1.78-1.27,0-2.16-.62-2.68-1.76-.18-.38-.3-.79-.46-1.18-1.78-4.56-4.16-8.73-7.82-12.09-7.91-7.29-19.46-6.06-26.24,.6-4.76,4.68-6.74,10.53-6.92,15.95Z" fill="#fff"/>
    </g>
  </g>
</svg>