<?xml version="1.0" encoding="UTF-8"?>
<svg id="Capa_2" data-name="Capa 2" xmlns="http://www.w3.org/2000/svg" viewBox="0 0 2715.19 507.82">
  <g id="Imagotipo">
    <g>
      <path d="M1094.46,343.76c0,45.28-21.75,83.5-64.7,83.5s-64.11-38.22-64.11-82.91V209.1h-83.52v144.65c0,85.26,50.59,154.06,147.63,154.06s148.23-68.8,148.23-154.06V209.1h-83.52v134.66Z" fill="#2358de"/>
      <path d="M1380.91,198.52c-90,0-151.17,69.39-151.17,153.48,0,92.91,68.22,155.82,158.81,155.82,61.76,0,109.99-29.99,135.28-82.32l-64.11-32.34c-13.53,27.05-40,42.34-71.77,42.34-41.76,0-71.76-25.88-77.65-64.68h216.47v-24.7c0-79.38-53.53-147.6-145.87-147.6Zm-67.06,125.84c5.88-29.4,29.99-52.92,66.46-52.92s59.99,22.93,63.52,52.92h-129.99Z" fill="#2358de"/>
      <rect x="1578.52" y="115.02" width="83.52" height="392.8" fill="#2358de"/>
      <path d="M1870.25,279.66c28.82,0,52.35,15.88,65.3,41.16l68.82-37.63c-26.46-56.45-78.24-81.73-134.11-82.32-87.64-.59-156.46,68.8-156.46,153.47s68.82,154.06,156.46,153.47c55.87-.59,107.65-25.87,134.11-82.32l-68.82-37.63c-12.94,25.28-36.48,41.16-65.3,41.16-41.76,0-72.93-33.52-72.93-74.68s31.17-74.68,72.93-74.68Z" fill="#2358de"/>
      <path d="M2200.53,200.28c-88.83,0-157.65,69.39-157.65,153.47s68.23,154.06,157.65,154.06,158.22-69.39,158.22-154.06-68.22-153.47-158.22-153.47Zm0,229.33c-42.95,0-74.12-34.11-74.12-75.27s31.17-75.27,74.12-75.27,74.7,34.11,74.7,75.27-31.77,75.27-74.7,75.27Z" fill="#2358de"/>
      <path d="M2562.25,208.51c-101.75,0-151.75,69.39-151.75,154.06v145.24h83.52v-135.24c0-44.69,21.17-82.91,68.22-82.91s69.41,38.22,69.41,82.91v135.24h83.52v-145.24c0-85.26-51.17-154.06-152.94-154.06Z" fill="#2358de"/>
      <path d="M668.66,.27h-.21c-19.03,0-37.38,8.27-50.38,22.71l-112.15,124.61,61.8,55.62,100.65-111.83,99.24,111.64,62.14-55.24-110.66-124.48c-12.95-14.57-31.33-22.96-50.44-23.02Z" fill="#2358de"/>
      <path d="M405.89,424.67c-95.85,0-177.55-61.57-207.77-147.22,52.72-21.4,89.93-73.03,89.93-133.43C288.05,64.48,223.57,0,144.03,0S0,64.48,0,144.03c0,69,48.55,126.6,113.33,140.67,35.31,128.45,153.06,223.12,292.56,223.12,167.29,0,303.42-136.12,303.44-303.43h-83.14c-.01,121.46-98.84,220.29-220.3,220.29ZM83.14,144.03c0-33.57,27.31-60.88,60.88-60.88s60.88,27.31,60.88,60.88c0,30.99-23.29,56.59-53.27,60.36h-15.21c-29.99-3.76-53.28-29.36-53.28-60.36Z" fill="#2358de"/>
    </g>
  </g>
</svg>