<?xml version="1.0" encoding="UTF-8"?>
<svg id="Capa_2" data-name="Capa 2" xmlns="http://www.w3.org/2000/svg" viewBox="0 0 1833.06 1260.99">
  <g id="Negativos">
    <g>
      <g>
        <path d="M1170.03,91.37l99.24,111.64,62.14-55.24-110.66-124.48c-12.95-14.57-31.33-22.96-50.44-23.02h-.21c-19.03,0-37.38,8.27-50.38,22.71l-112.15,124.61,61.8,55.62,100.65-111.83Z" fill="#fff"/>
        <path d="M1210.98,204.39h-83.14c-.01,121.46-98.84,220.29-220.3,220.29-95.85,0-177.55-61.57-207.77-147.22,52.72-21.4,89.93-73.03,89.93-133.43C789.7,64.48,725.22,0,645.68,0s-144.03,64.48-144.03,144.03c0,69,48.55,126.6,113.33,140.67,35.31,128.45,153.06,223.12,292.56,223.12,167.29,0,303.42-136.12,303.44-303.43Zm-626.19-60.36c0-33.57,27.31-60.88,60.88-60.88s60.88,27.31,60.88,60.88c0,30.99-23.29,56.59-53.27,60.36h-15.21c-29.99-3.76-53.28-29.36-53.28-60.36Z" fill="#fff"/>
      </g>
      <g>
        <path d="M29.63,1078.15v136.57H0v-136.57H29.63Z" fill="#fff"/>
        <path d="M228.11,1162.16v52.56h-28.82v-47.69c0-15.42-6.7-28.41-22.53-28.41s-22.32,12.79-22.32,28.01v48.09h-28.82v-47.89c0-15.42-6.69-28.21-22.32-28.21s-22.32,12.99-22.32,28.21v47.89h-28.82v-52.56c0-28,16.44-51.55,48.91-51.55,19.28,0,33.28,8.52,39.17,22.32,6.29-13.8,20.5-22.32,38.56-22.32,32.67,0,49.31,23.54,49.31,51.55Z" fill="#fff"/>
        <path d="M250.65,1260.99v-96.8c0-30.24,23.13-52.76,54.39-52.76s54.38,23.95,54.38,52.76c0,31.45-21.51,53.37-52.76,53.37-10.15,0-19.68-3.65-27.19-9.33v52.76h-28.82Zm79.95-96.59c0-14.21-10.75-25.77-25.57-25.77s-25.57,11.57-25.57,25.77,10.75,25.97,25.57,25.97,25.57-11.77,25.57-25.97Z" fill="#fff"/>
        <path d="M455.21,1160.74v-46.47h28.82v49.92c0,29.42-17.45,53.17-51.14,53.17s-50.93-23.74-50.93-53.17v-49.92h28.82v46.68c0,15.42,7.31,28.61,22.12,28.61s22.32-13.19,22.32-28.82Z" fill="#fff"/>
        <path d="M535.38,1068v146.72h-28.82v-146.72h28.82Z" fill="#fff"/>
        <path d="M555.07,1194.84l21.31-11.97c4.26,8.12,10.96,11.57,21.11,11.57,9.33,0,15.22-3.65,15.22-9.54,0-16.23-55.2-2.23-55.2-40.99,0-18.06,15.83-32.26,40.59-32.26,21.51,0,34.5,10.15,40.58,21.71l-21.31,11.97c-3.25-7.31-10.55-10.75-18.67-10.75-7.1,0-12.38,3.45-12.38,8.73,0,16.23,55.2,3.25,55.2,40.99,0,20.29-19.68,33.28-42.61,33.28-20.9,0-35.51-7.71-43.83-22.73Z" fill="#fff"/>
        <path d="M652.29,1164.19c0-28.82,23.54-52.97,54.39-52.97s54.59,22.73,54.59,52.97v50.53h-27.4v-11.77c-7.1,8.93-18.06,14.41-31.86,14.41-29.22,0-49.72-23.94-49.72-53.17Zm80.16,.2c0-14.21-10.96-25.97-25.77-25.97s-25.57,11.77-25.57,25.97,10.75,25.97,25.57,25.97,25.77-11.77,25.77-25.97Z" fill="#fff"/>
        <path d="M810.18,1168.05v46.67h-28.82v-50.12c0-29.22,17.25-53.17,52.36-53.17s52.76,23.74,52.76,53.17v50.12h-28.82v-46.67c0-15.42-7.51-28.61-23.94-28.61s-23.54,13.19-23.54,28.61Z" fill="#fff"/>
        <path d="M901.51,1164.6c0-31.25,21.51-53.17,52.76-53.17,10.15,0,19.89,3.65,27.19,9.54l.2-52.97h28.82v96.59c0,30.44-23.13,52.97-54.59,52.97s-54.39-23.95-54.39-52.97Zm80.16,0c0-14.2-10.96-25.97-25.77-25.97s-25.57,11.77-25.57,25.97,10.75,25.77,25.57,25.77,25.77-11.57,25.77-25.77Z" fill="#fff"/>
        <path d="M1025.52,1164.19c0-29.02,23.75-52.97,54.39-52.97s54.59,24.15,54.59,52.97-23.75,53.17-54.59,53.17-54.39-23.94-54.39-53.17Zm80.16,.2c0-14.21-10.96-25.97-25.77-25.97s-25.57,11.77-25.57,25.97,10.76,25.97,25.57,25.97,25.77-11.77,25.77-25.97Z" fill="#fff"/>
        <path d="M1207.37,1214.72v-121.15c0-15.62,7.5-25.57,26.17-25.57h71.84v27.4h-68.39v35.72h63.72v27.19h-63.72v56.41h-29.63Z" fill="#fff"/>
        <path d="M1391.03,1160.74v-46.47h28.82v49.92c0,29.42-17.45,53.17-51.14,53.17s-50.94-23.74-50.94-53.17v-49.92h28.82v46.68c0,15.42,7.31,28.61,22.12,28.61s22.32-13.19,22.32-28.82Z" fill="#fff"/>
        <path d="M1455.58,1174.95v-36.33h-18.47v-24.35h18.47v-25.57h28.82v25.57h35.51v24.35h-35.51v35.51c0,11.16,6.69,17.66,17.25,17.66,5.89,0,13.39-1.83,18.26-4.87v25.77c-5.08,3.25-13.8,4.87-20.9,4.87-29.01,0-43.42-17.45-43.42-42.62Z" fill="#fff"/>
        <path d="M1608.4,1160.74v-46.47h28.82v49.92c0,29.42-17.45,53.17-51.14,53.17s-50.94-23.74-50.94-53.17v-49.92h28.82v46.68c0,15.42,7.31,28.61,22.12,28.61s22.32-13.19,22.32-28.82Z" fill="#fff"/>
        <path d="M1656.1,1214.72v-57.63c0-25.77,14.61-45.46,44.44-45.46,6.5,0,13.6,1.22,18.67,3.45v28c-4.87-2.84-10.75-4.26-16.03-4.26-11.36,0-18.26,7.31-18.26,19.28v56.62h-28.82Z" fill="#fff"/>
        <path d="M1724.09,1164.19c0-29.02,23.74-52.97,54.38-52.97s54.59,24.15,54.59,52.97-23.74,53.17-54.59,53.17-54.38-23.94-54.38-53.17Zm80.15,.2c0-14.21-10.96-25.97-25.77-25.97s-25.57,11.77-25.57,25.97,10.75,25.97,25.57,25.97,25.77-11.77,25.77-25.97Z" fill="#fff"/>
      </g>
      <g>
        <path d="M212.33,820.08v-134.66h83.52v144.65c0,85.26-50.58,154.06-148.23,154.06S0,915.34,0,830.08v-144.65H83.52v135.24c0,44.69,21.18,82.91,64.11,82.91s64.7-38.22,64.7-83.5Z" fill="#fff"/>
        <path d="M347.6,828.31c0-84.09,61.18-153.48,151.17-153.48s145.87,68.21,145.87,147.6v24.7h-216.47c5.89,38.81,35.88,64.68,77.65,64.68,31.77,0,58.24-15.29,71.77-42.34l64.11,32.34c-25.29,52.33-73.52,82.32-135.28,82.32-90.59,0-158.81-62.92-158.81-155.82Zm214.1-27.64c-3.53-29.99-28.23-52.92-63.52-52.92s-60.58,23.52-66.46,52.92h129.99Z" fill="#fff"/>
        <path d="M779.92,591.34v392.8h-83.52v-392.8h83.52Z" fill="#fff"/>
        <path d="M831.67,830.66c0-84.68,68.82-154.06,156.46-153.47,55.87,.59,107.65,25.87,134.11,82.32l-68.82,37.63c-12.94-25.28-36.48-41.16-65.3-41.16-41.76,0-72.94,33.52-72.94,74.68s31.17,74.68,72.94,74.68c28.82,0,52.35-15.88,65.3-41.16l68.82,37.63c-26.46,56.45-78.24,81.73-134.11,82.32-87.64,.59-156.46-69.39-156.46-153.47Z" fill="#fff"/>
        <path d="M1160.76,830.08c0-84.09,68.82-153.47,157.65-153.47s158.22,69.97,158.22,153.47-68.82,154.06-158.22,154.06-157.65-69.39-157.65-154.06Zm232.34,.59c0-41.16-31.77-75.27-74.7-75.27s-74.12,34.11-74.12,75.27,31.17,75.27,74.12,75.27,74.7-34.11,74.7-75.27Z" fill="#fff"/>
        <path d="M1611.9,848.89v135.24h-83.52v-145.24c0-84.68,50-154.06,151.75-154.06s152.94,68.8,152.94,154.06v145.24h-83.52v-135.24c0-44.69-21.77-82.91-69.41-82.91s-68.22,38.22-68.22,82.91Z" fill="#fff"/>
      </g>
    </g>
  </g>
</svg>