<?xml version="1.0" encoding="UTF-8"?>
<svg id="Capa_2" data-name="Capa 2" xmlns="http://www.w3.org/2000/svg" viewBox="0 0 200 200">
  <g id="Inicio">
    <g>
      <rect width="200" height="200" rx="50" ry="50" fill="#2358de"/>
      <path d="M57.5,92.96c-.02-16.75,11.81-31.29,28.24-34.72,19.87-4.16,39.31,9.45,42.2,29.58,1.41,9.83-.99,18.72-6.95,26.64-.54,.72-.51,1.06,.11,1.68,6.7,6.65,13.37,13.35,20.06,20.01,.98,.98,1.54,2.08,1.29,3.47-.47,2.63-3.59,3.79-5.69,2.12-.32-.25-.59-.55-.88-.84-6.6-6.6-13.21-13.19-19.79-19.81-.57-.57-.9-.66-1.59-.13-20.75,15.93-50.89,4.76-56.27-20.85-.49-2.35-.75-4.73-.73-7.14Zm35.47-28.36c-15.59-.03-28.33,12.64-28.38,28.23-.05,15.63,12.66,28.41,28.28,28.44,15.59,.03,28.33-12.64,28.38-28.23,.06-15.63-12.65-28.41-28.28-28.44Z" fill="#fff"/>
    </g>
  </g>
</svg>