<?xml version="1.0" encoding="UTF-8"?>
<svg id="Capa_2" data-name="Capa 2" xmlns="http://www.w3.org/2000/svg" viewBox="0 0 200 200">
  <g id="Inicio">
    <g>
      <rect width="200" height="200" rx="50" ry="50" fill="#2358de"/>
      <path d="M102.93,149.99h-5.86c-.25-.2-.56-.16-.84-.17-1.79-.09-3.56-.35-5.31-.67-20.49-3.79-36.59-20.05-40.13-40.54-.33-1.88-.52-3.79-.78-5.68,0-1.95,0-3.91,0-5.86,.06-.38,.14-.76,.17-1.14,.32-4.14,1.13-8.17,2.49-12.09,4.02-11.57,11.28-20.55,21.81-26.81,9.41-5.59,19.62-7.84,30.5-6.76,9.93,.99,18.85,4.62,26.54,10.99,11.48,9.52,17.64,21.8,18.42,36.69,.42,8.09-1.09,15.89-4.63,23.19-7.53,15.51-19.85,24.87-36.79,28.09-1.84,.35-3.72,.51-5.59,.76Zm-39.64-51.59c3.02,0,6.05-.03,9.07,.02,.75,.01,.91-.22,.93-.93,.16-7.21,1.15-14.31,3.11-21.26,.21-.74,.09-1.02-.66-1.22-3.84-1.04-7.51-2.52-11.02-4.38-.56-.3-.85-.27-1.26,.26-2.13,2.73-4,5.61-5.5,8.72-2.74,5.65-4.28,11.62-4.66,17.89-.05,.76,.19,.92,.91,.91,3.02-.04,6.05-.02,9.07-.02Zm73.31,0c3.06,0,6.12,0,9.18,0,.49,0,.85,.05,.8-.7-.58-10.05-4.01-19-10.24-26.9-.37-.47-.63-.47-1.12-.21-3.57,1.89-7.31,3.39-11.2,4.46-.57,.16-.78,.34-.6,.99,1.99,7.05,3.05,14.23,3.14,21.55,0,.65,.23,.82,.85,.81,3.06-.03,6.12-.01,9.18-.01Zm9.91,4.84q.07-1.5-1.47-1.5c-5.86,0-11.71,0-17.57-.01-.64,0-.91,.13-.92,.84-.09,7.29-1.15,14.44-3.12,21.45-.16,.57-.12,.84,.54,1.02,3.93,1.08,7.69,2.58,11.29,4.49,.45,.24,.7,.24,1.04-.19,6.07-7.66,9.47-16.35,10.19-26.1Zm-83.13-1.5c-3.09,0-6.18,.01-9.27-.01-.62,0-.88,.14-.8,.81,.12,1,.11,2.02,.24,3.01,1.15,8.81,4.42,16.73,9.94,23.7,.39,.49,.68,.52,1.19,.24,3.54-1.88,7.25-3.35,11.11-4.43,.63-.18,.82-.36,.62-1.06-1.97-7.02-2.99-14.18-3.14-21.46-.01-.63-.19-.82-.83-.82-3.03,.03-6.05,.01-9.08,.01Zm49.05-3.33c3.25,0,6.5-.03,9.76,.02,.84,.01,1.1-.17,1.07-1.06-.22-6.95-1.22-13.77-3.06-20.48-.17-.63-.37-.74-.99-.61-5.5,1.22-11.08,1.87-16.72,2-.74,.02-.91,.24-.91,.95,.03,6.08,.03,12.16,0,18.24,0,.82,.28,.96,1.01,.95,3.28-.03,6.57-.01,9.85-.01Zm-24.93,0c3.28,0,6.57-.02,9.85,.02,.73,0,.93-.19,.92-.92-.03-6.11-.03-12.23,0-18.34,0-.69-.2-.86-.87-.88-5.63-.14-11.21-.78-16.71-2.01-.72-.16-.86,.08-1.03,.69-1.85,6.74-2.84,13.6-3.05,20.58-.02,.69,.15,.89,.84,.88,3.35-.03,6.7-.01,10.05-.01Zm25,3.33c-3.35,0-6.7,0-10.05,0-.58,0-.87,.07-.87,.78,.03,6.18,.02,12.37,0,18.55,0,.6,.2,.79,.78,.8,1.3,.02,2.6,.06,3.9,.15,4.29,.29,8.53,.87,12.74,1.78,.43,.09,.93,.43,1.17-.45,1.86-6.81,2.89-13.73,3.08-20.78,.02-.64-.15-.83-.8-.82-3.32,.03-6.64,.01-9.96,.01Zm-25.01,0c-3.35,0-6.7,.02-10.05-.02-.71,0-.84,.21-.82,.89,.22,6.92,1.19,13.72,3.01,20.4,.21,.77,.44,.97,1.22,.8,5.44-1.2,10.96-1.88,16.53-1.96,.65,0,.9-.16,.9-.87-.03-6.15-.03-12.3,0-18.45,0-.65-.2-.81-.82-.81-3.32,.03-6.64,.01-9.96,.01Zm14.1-37.55c0,3.32,.01,6.63,0,9.95,0,.58,.08,.87,.78,.84,5.37-.21,10.69-.77,15.94-1.91,.48-.1,.59-.24,.42-.69-1.79-4.66-3.95-9.12-7.27-12.92-2.44-2.79-5.29-4.98-9.01-5.83-.75-.17-.88,.02-.87,.72,.03,3.28,.01,6.57,.01,9.85Zm0,71.66c0,3.19,0,6.38,0,9.57,0,1.3,0,1.3,1.29,.96,3.05-.81,5.54-2.53,7.69-4.78,3.84-4,6.21-8.86,8.18-13.96,.24-.62-.21-.55-.51-.61-5.23-1.1-10.52-1.76-15.87-1.88-.68-.01-.81,.22-.81,.83,.02,3.29,.01,6.57,.01,9.86Zm-3.34-71.58c0-3.29-.03-6.57,.02-9.86,.01-.84-.22-.94-.99-.75-3.22,.77-5.81,2.56-8.04,4.9-3.77,3.96-6.14,8.74-8.08,13.78-.27,.71,.16,.65,.58,.75,5.16,1.14,10.39,1.67,15.66,1.89,.71,.03,.87-.18,.86-.85-.03-3.29-.01-6.57-.01-9.86Zm-.07,82.34c.04-.22,.06-.32,.06-.41,0-6.76,0-13.53,.02-20.29,0-.74-.33-.75-.88-.74-4.92,.1-9.79,.68-14.61,1.63-1.84,.36-1.84,.37-1.14,2.14,1.84,4.62,4.13,8.97,7.6,12.6,2.46,2.56,5.3,4.48,8.94,5.07Zm-9.94-91.71c-7.41,1.64-16.56,6.95-21.57,12.35-.51,.55-.18,.64,.24,.85,3.18,1.57,6.48,2.84,9.89,3.83,.74,.21,.94,0,1.15-.63,1.5-4.52,3.76-8.63,6.69-12.38,1.06-1.36,2.23-2.61,3.6-4.01Zm45.39,12.82c-6.16-6.33-13.39-10.57-22.08-12.89,2.01,2.03,3.69,3.97,5.15,6.09,2.23,3.23,3.99,6.69,5.24,10.42,.12,.35,.11,.87,.8,.67,3.72-1.06,7.33-2.42,10.89-4.28Zm-21.9,77.41c.37-.03,.5-.02,.62-.05,7.99-2.26,14.93-6.31,20.81-12.18,.45-.45,.35-.61-.16-.86-3.19-1.57-6.48-2.83-9.89-3.83-.76-.22-1-.03-1.23,.67-1.43,4.4-3.64,8.39-6.45,12.06-1.09,1.42-2.31,2.72-3.69,4.19Zm-23.66,.07c-.13-.23-.15-.29-.19-.34-4.59-4.62-7.95-10-9.98-16.19-.23-.69-.57-.6-1.1-.45-3.35,.95-6.58,2.2-9.72,3.72-.76,.37-.77,.58-.19,1.16,4.46,4.43,9.59,7.85,15.42,10.22,1.83,.74,3.69,1.41,5.76,1.89Z" fill="#fff" stroke="#fff" stroke-miterlimit="10"/>
    </g>
  </g>
</svg>