<?xml version="1.0" encoding="UTF-8"?>
<svg id="Capa_2" data-name="Capa 2" xmlns="http://www.w3.org/2000/svg" viewBox="0 0 200 200">
  <g id="Inicio">
    <g>
      <rect width="200" height="200" rx="50" ry="50" fill="#2358de"/>
      <g>
        <path d="M88.18,50c-2.81,0-5.22,1.01-7.2,2.98-5.39,5.35-10.77,10.69-16.09,16.1-4.28,4.35-4.23,10.31,.05,14.65,3.55,3.6,7.12,7.19,10.75,10.72,.84,.82,.93,1.22,.04,2.1-8.11,8.02-16.16,16.1-24.22,24.17-.36,.36-.73,.71-1.02,1.12-.84,1.21-.68,2.77,.36,3.77,1.03,1,2.6,1.12,3.79,.24,.4-.3,.75-.68,1.1-1.04,8.07-8.06,16.14-16.12,24.18-24.21,.75-.75,1.14-.81,1.91-.02,3.5,3.59,7.06,7.12,10.62,10.65,4.62,4.59,10.55,4.59,15.14,.01,5.21-5.2,10.42-10.4,15.61-15.61,4.46-4.48,4.48-10.48,.02-14.95-9.13-9.15-18.28-18.28-27.41-27.42-2.12-2.12-4.61-3.29-7.63-3.27Zm-11.88,36.66c.2-.23,.38-.44,.57-.63,6.99-6.99,13.99-13.98,20.96-20.99,.54-.54,.85-.59,1.41-.02,4.04,4.09,8.11,8.15,12.2,12.19,.53,.53,.46,.82-.03,1.3-7.04,7.01-14.06,14.04-21.07,21.07-.45,.45-.74,.51-1.22,.03-4.11-4.15-8.25-8.27-12.38-12.4-.16-.16-.28-.35-.44-.55Zm23.69,22.05c-1.05,0-2.07-.36-2.91-1.17-.7-.67-1.32-1.43-2.07-2.03-1-.8-1.06-1.34-.06-2.31,3.84-3.7,7.57-7.52,11.35-11.29,3.06-3.06,6.13-6.1,9.16-9.19,.6-.61,.96-.64,1.52,0,.69,.8,1.5,1.5,2.23,2.26,1.93,2.02,1.95,4.34-.04,6.34-5.32,5.35-10.66,10.67-16,16.01-.85,.85-1.87,1.32-3.18,1.35Zm-11.64-52.9c1.1-.05,2.06,.45,2.89,1.23,.77,.73,1.46,1.55,2.27,2.22,.79,.65,.77,1.06,.02,1.8-6.21,6.15-12.37,12.35-18.57,18.51-.96,.96-1.84,2.72-2.99,2.58-1.09-.13-2.02-1.72-2.98-2.71-1.83-1.89-1.87-4.25,0-6.13,5.37-5.43,10.79-10.81,16.19-16.21,.85-.85,1.85-1.34,3.16-1.3Z" fill="#fff"/>
        <path d="M111.81,144.13c-11.22,0-22.44,0-33.66,0-.32,0-.64,0-.97,0-2.32,.02-3.71,1.15-3.66,2.98,.05,1.8,1.4,2.88,3.64,2.88,18.07,0,36.15,0,54.22,0,5.1,0,10.21,0,15.31,0,1.77,0,2.87-.76,3.25-2.18,.47-1.72-.64-3.41-2.41-3.63-.54-.07-1.1-.05-1.65-.05-11.36,0-22.72,0-34.08,0Z" fill="#fff"/>
        <path d="M111.87,138.2c7.45,0,14.89,0,22.34,0,.46,0,.92,.01,1.38-.03,1.53-.14,2.66-1.3,2.71-2.79,.06-1.52-1.08-2.83-2.64-3.02-.41-.05-.83-.03-1.24-.03-15.07,0-30.15,0-45.22,0-.37,0-.74-.02-1.1,.01-1.59,.14-2.76,1.37-2.79,2.89-.02,1.58,1.17,2.9,2.85,2.93,3.54,.06,7.08,.03,10.62,.03,4.37,0,8.73,0,13.1,0Z" fill="#fff"/>
      </g>
    </g>
  </g>
</svg>